# xmcd CD database file
#
# Track frame offsets:
#	150
#	18227
#	43722
#	61747
#
# Disc length: 1161 seconds
#
# Revision: 4
# Processed by: cddbd v1.5.2PL0 Copyright (c) Steve Scherf et al.
# Submitted via: CDex 1.70beta2
#
DISCID=27048704
DTITLE=高橋洋子 - 蒼き炎　TVアニメ『パンプキン・シザーズ』オープニングテーマ
DYEAR=2006
DGENRE=Anime
TTITLE0=蒼き炎(フランム)
TTITLE1=Change
TTITLE2=蒼き炎(フランム) (instrumental)
TTITLE3=Change (instrumental)
EXTD=YEAR: 2006
EXTT0=
EXTT1=
EXTT2=
EXTT3=
PLAYORDER=
